<?xml version="1.0" encoding="UTF-8"?>
<svg version="1.1" xmlns="http://www.w3.org/2000/svg" width="564" height="564">
<path d="M0 0 C186.12 0 372.24 0 564 0 C564 186.12 564 372.24 564 564 C377.88 564 191.76 564 0 564 C0 377.88 0 191.76 0 0 Z " fill="#000000" transform="translate(0,0)"/>
<path d="M0 0 C0 94.38 0 188.76 0 286 C-24.42 286 -48.84 286 -74 286 C-74.33 205.15 -74.66 124.3 -75 41 C-81.93 50.9 -81.93 50.9 -89 61 C-92.97265625 66.66015625 -92.97265625 66.66015625 -94.54785156 68.90380859 C-100.21899968 76.986383 -105.82285667 85.11143118 -111.38256836 93.27099609 C-114.96577557 98.51875645 -118.61943551 103.70867461 -122.33300781 108.86474609 C-125.44997127 113.20199443 -128.48512413 117.59129631 -131.5 122 C-134.90422906 126.97806141 -138.35046573 131.91889643 -141.875 136.8125 C-146.31944015 142.98966882 -150.61788116 149.26085037 -154.90185547 155.55004883 C-159.46546985 162.2412673 -164.10390529 168.87764543 -168.75976562 175.50488281 C-172.80078987 181.26525275 -176.78874499 187.05954052 -180.75 192.875 C-184.82639483 198.85825255 -188.96357454 204.78728488 -193.19677734 210.66040039 C-196.66672922 215.49230489 -200.02629059 220.39600587 -203.375 225.3125 C-207.94173353 232.01579103 -212.56639475 238.67222954 -217.25805664 245.28857422 C-222.3180315 252.43099659 -227.31272065 259.61840557 -232.3059082 266.80761719 C-232.94359131 267.72575195 -233.58127441 268.64388672 -234.23828125 269.58984375 C-234.79555908 270.39284912 -235.35283691 271.19585449 -235.92700195 272.02319336 C-236.61109131 273.00553955 -237.29518066 273.98788574 -238 275 C-238.37060043 275.83470825 -238.74120087 276.6694165 -239.12303162 277.52941895 C-240.78753792 280.74814489 -242.16876813 282.71097723 -245 285 C-251.35129035 286.43163665 -257.58182102 286.16588807 -264.05859375 285.9765625 C-265.93185137 285.95789594 -267.80515803 285.94366854 -269.67848206 285.9336853 C-274.59366199 285.8956209 -279.5058557 285.7975035 -284.41986084 285.68664551 C-289.44030356 285.58408595 -294.46123208 285.53862119 -299.48242188 285.48828125 C-309.32292204 285.38124328 -319.1612121 285.21072366 -329 285 C-324.60709057 277.27944888 -324.60709057 277.27944888 -322.73046875 274.58984375 C-322.12174927 273.71150879 -322.12174927 273.71150879 -321.50073242 272.81542969 C-321.06736572 272.19571289 -320.63399902 271.57599609 -320.1875 270.9375 C-319.20779495 269.52511288 -318.22866015 268.11233009 -317.25 266.69921875 C-316.72664063 265.94431152 -316.20328125 265.1894043 -315.6640625 264.41162109 C-313.28595517 260.96517975 -310.93438539 257.50090628 -308.58129883 254.03735352 C-302.55014353 245.1605068 -296.45370704 236.33451258 -290.28125 227.55541992 C-284.56766423 219.41468873 -278.97606051 211.19239551 -273.3828125 202.96875 C-268.03942258 195.11340991 -262.61523598 187.31517923 -257.1796875 179.5234375 C-250.98216532 170.63438288 -244.79036827 161.7533187 -238.82421875 152.70703125 C-236.7546633 149.63593504 -234.60356531 146.62820037 -232.4375 143.625 C-226.03152101 134.7379832 -219.917656 125.65130049 -213.76171875 116.59033203 C-206.95058331 106.57562208 -200.04774049 96.62527186 -193.125 86.6875 C-186.56255263 77.26614174 -180.05488018 67.80913797 -173.58544922 58.32373047 C-169.77676428 52.74149098 -165.95918801 47.16532882 -162.140625 41.58984375 C-160.08325281 38.58559836 -158.03161392 35.57756467 -155.984375 32.56640625 C-118.73236436 -22.1414059 -79.99774318 0 0 0 Z " fill="#FCFCFC" transform="translate(438,130)"/>
<path d="M0 0 C0.33 0 0.66 0 1 0 C1 54.78 1 109.56 1 166 C-36.95 166 -74.9 166 -114 166 C-111.1685975 160.337195 -108.51725815 155.67824123 -104.75 150.75 C-100.65186628 145.28015159 -96.76919794 139.72599951 -93.015625 134.01171875 C-90.80460184 130.7080388 -88.51009744 127.4756291 -86.1875 124.25 C-81.12204803 117.21160538 -76.21204511 110.07197566 -71.31396484 102.91650391 C-66.83025228 96.37671505 -62.31209562 89.860332 -57.75 83.375 C-54.37858517 78.56761219 -51.06359977 73.72230939 -47.75 68.875 C-47.18788818 68.05281982 -46.62577637 67.23063965 -46.04663086 66.38354492 C-43.86292593 63.1890448 -41.67936545 59.99444627 -39.49658203 56.79931641 C-34.3297891 49.24052237 -29.11469125 41.72492997 -23.77099609 34.29003906 C-20.60590398 29.87566722 -17.50965631 25.41697105 -14.4375 20.9375 C-13.75421631 19.94169922 -13.75421631 19.94169922 -13.05712891 18.92578125 C-11.25372015 16.29513852 -9.45210975 13.66330231 -7.65576172 11.02783203 C-6.39825127 9.18332784 -5.13689239 7.34150781 -3.875 5.5 C-3.15054688 4.4378125 -2.42609375 3.375625 -1.6796875 2.28125 C-1.12539063 1.5284375 -0.57109375 0.775625 0 0 Z " fill="#FDFDFD" transform="translate(339,249)"/>
<path d="M0 0 C1 3 1 3 -0.3125 5.6875 C-0.869375 6.450625 -1.42625 7.21375 -2 8 C-2.66 8 -3.32 8 -4 8 C-2.87548273 5.0280615 -1.77706209 2.66559313 0 0 Z M-5 8 C-5 8.99 -5 9.98 -5 11 C-5.66 10.67 -6.32 10.34 -7 10 C-6.34 9.34 -5.68 8.68 -5 8 Z " fill="#DDDDDD" transform="translate(179,312)"/>
<path d="M0 0 C0.66 0.33 1.32 0.66 2 1 C2 2.66666667 2 4.33333333 2 6 C0.35 6 -1.3 6 -3 6 C-2.01 4.02 -1.02 2.04 0 0 Z " fill="#E8E8E8" transform="translate(228,409)"/>
<path d="M0 0 C0.33 0 0.66 0 1 0 C1 1.65 1 3.3 1 5 C-0.65 5.66 -2.3 6.32 -4 7 C-2.92598892 4.08482708 -2.22189824 2.22189824 0 0 Z " fill="#161616" transform="translate(363,170)"/>
</svg>
